<?xml version="1.0" encoding="UTF-8" standalone="no"?>
<!-- Created with Inkscape (http://www.inkscape.org/) -->

<svg
   xmlns:dc="http://purl.org/dc/elements/1.1/"
   xmlns:cc="http://creativecommons.org/ns#"
   xmlns:rdf="http://www.w3.org/1999/02/22-rdf-syntax-ns#"
   xmlns:svg="http://www.w3.org/2000/svg"
   xmlns="http://www.w3.org/2000/svg"
   xmlns:sodipodi="http://sodipodi.sourceforge.net/DTD/sodipodi-0.dtd"
   xmlns:inkscape="http://www.inkscape.org/namespaces/inkscape"
   width="28.912298mm"
   height="9mm"
   viewBox="0 0 28.912298 9.0000001"
   version="1.1"
   id="svg896"
   inkscape:version="0.92.5 (2060ec1f9f, 2020-04-08)"
   sodipodi:docname="logo-rester.svg">
  <defs
     id="defs890" />
  <sodipodi:namedview
     id="base"
     pagecolor="#ffffff"
     bordercolor="#666666"
     borderopacity="1.0"
     inkscape:pageopacity="0.0"
     inkscape:pageshadow="2"
     inkscape:zoom="13.61364"
     inkscape:cx="55.787417"
     inkscape:cy="20.463507"
     inkscape:document-units="mm"
     inkscape:current-layer="layer1"
     showgrid="false"
     inkscape:window-width="1920"
     inkscape:window-height="1016"
     inkscape:window-x="0"
     inkscape:window-y="27"
     inkscape:window-maximized="1"
     fit-margin-top="0"
     fit-margin-left="0"
     fit-margin-right="0"
     fit-margin-bottom="0" />
  <metadata
     id="metadata893">
    <rdf:RDF>
      <cc:Work
         rdf:about="">
        <dc:format>image/svg+xml</dc:format>
        <dc:type
           rdf:resource="http://purl.org/dc/dcmitype/StillImage" />
        <dc:title></dc:title>
      </cc:Work>
    </rdf:RDF>
  </metadata>
  <g
     inkscape:label="Layer 1"
     inkscape:groupmode="layer"
     id="layer1"
     transform="translate(-39.516314,-24.117217)">
    <text
       xml:space="preserve"
       style="font-style:normal;font-weight:normal;font-size:4.23333311px;line-height:1.25;font-family:sans-serif;letter-spacing:0px;word-spacing:0px;fill:#4caf50;fill-opacity:1;stroke:none;stroke-width:0.26458332"
       x="48.497223"
       y="31.451277"
       id="text823-1"><tspan
         sodipodi:role="line"
         id="tspan821-7"
         x="48.497223"
         y="31.451277"
         style="font-style:normal;font-variant:normal;font-weight:normal;font-stretch:normal;font-size:9.87777805px;font-family:Dyuthi;-inkscape-font-specification:'Dyuthi, Normal';font-variant-ligatures:normal;font-variant-caps:normal;font-variant-numeric:normal;font-feature-settings:normal;text-align:start;writing-mode:lr-tb;text-anchor:start;fill:#4caf50;fill-opacity:1;stroke-width:0.26458332">ester</tspan></text>
    <path
       style="opacity:1;fill:#4caf50;fill-opacity:1;stroke:none;stroke-width:0.26032218;stroke-miterlimit:4;stroke-dasharray:none;stroke-opacity:1"
       d="m 44.016314,24.117217 a 4.4999297,4.4998876 0 0 0 -4.5,4.499738 4.4999297,4.4998876 0 0 0 4.5,4.500262 4.4999297,4.4998876 0 0 0 4.5,-4.500262 4.4999297,4.4998876 0 0 0 -4.5,-4.499738 z m -0.965657,1.805864 h 1.415017 c 0.10117,0 0.187302,0.0087 0.258395,0.02618 0.399212,0.06399 0.733129,0.261621 1.001093,0.593229 0.267965,0.331607 0.401619,0.693758 0.401619,1.08645 0,0.392693 -0.104944,0.76357 -0.315487,1.11263 -0.07656,0.12799 -0.173794,0.245798 -0.291371,0.353424 l 0.746637,1.335156 c 0.0875,0.157078 0.105108,0.349061 0.05315,0.57595 -0.05469,0.226889 -0.142021,0.340334 -0.262331,0.340334 h -0.0084 c -0.139451,0.08727 -0.285901,0.107802 -0.439024,0.06126 -0.319917,-0.08727 -0.543804,-0.33597 -0.672318,-0.746117 l -0.385869,-1.217348 -0.902165,0.01727 v 1.344058 c 0,0.180347 -0.06152,0.329978 -0.184568,0.44924 -0.123045,0.119268 -0.261292,0.179073 -0.414415,0.179073 h -0.01624 c -0.16406,0 -0.304714,-0.06236 -0.422291,-0.187446 -0.117576,-0.125079 -0.176692,-0.27215 -0.176692,-0.440862 v -4.236895 c 0,-0.174531 0.06032,-0.325441 0.18063,-0.45343 0.120311,-0.127989 0.265066,-0.192158 0.434595,-0.192158 z m 0.598983,0.57595 v 2.29961 h 0.590616 c 0.205075,-0.0058 0.380236,-0.08744 0.525156,-0.244517 0.144919,-0.159985 0.215848,-0.461051 0.213113,-0.903194 0,-0.439234 -0.07383,-0.741578 -0.22148,-0.907382 -0.150389,-0.165804 -0.322652,-0.247426 -0.516789,-0.244517 z"
       id="path825-0"
       inkscape:connector-curvature="0" />
  </g>
</svg>
