<?xml version="1.0" encoding="UTF-8" standalone="no"?>
<!-- Created with Inkscape (http://www.inkscape.org/) -->

<svg
   xmlns:dc="http://purl.org/dc/elements/1.1/"
   xmlns:cc="http://creativecommons.org/ns#"
   xmlns:rdf="http://www.w3.org/1999/02/22-rdf-syntax-ns#"
   xmlns:svg="http://www.w3.org/2000/svg"
   xmlns="http://www.w3.org/2000/svg"
   xmlns:sodipodi="http://sodipodi.sourceforge.net/DTD/sodipodi-0.dtd"
   xmlns:inkscape="http://www.inkscape.org/namespaces/inkscape"
   width="29.203825mm"
   height="8.8826618mm"
   viewBox="0 0 29.203825 8.8826619"
   version="1.1"
   id="svg896"
   inkscape:version="0.92.5 (2060ec1f9f, 2020-04-08)"
   sodipodi:docname="logo-rester.svg">
  <defs
     id="defs890" />
  <sodipodi:namedview
     id="base"
     pagecolor="#ffffff"
     bordercolor="#666666"
     borderopacity="1.0"
     inkscape:pageopacity="0.0"
     inkscape:pageshadow="2"
     inkscape:zoom="13.61364"
     inkscape:cx="39.286073"
     inkscape:cy="23.254826"
     inkscape:document-units="mm"
     inkscape:current-layer="layer1"
     showgrid="false"
     inkscape:window-width="1920"
     inkscape:window-height="1016"
     inkscape:window-x="0"
     inkscape:window-y="27"
     inkscape:window-maximized="1"
     fit-margin-top="0"
     fit-margin-left="0"
     fit-margin-right="0"
     fit-margin-bottom="0" />
  <metadata
     id="metadata893">
    <rdf:RDF>
      <cc:Work
         rdf:about="">
        <dc:format>image/svg+xml</dc:format>
        <dc:type
           rdf:resource="http://purl.org/dc/dcmitype/StillImage" />
        <dc:title></dc:title>
      </cc:Work>
    </rdf:RDF>
  </metadata>
  <g
     inkscape:label="Layer 1"
     inkscape:groupmode="layer"
     id="layer1"
     transform="translate(-39.224787,-24.195685)">
    <text
       xml:space="preserve"
       style="font-style:normal;font-weight:normal;font-size:4.23333311px;line-height:1.25;font-family:sans-serif;letter-spacing:0px;word-spacing:0px;fill:#4caf50;fill-opacity:1;stroke:none;stroke-width:0.26458332"
       x="48.633266"
       y="31.392971"
       id="text823-1"><tspan
         sodipodi:role="line"
         id="tspan821-7"
         x="48.633266"
         y="31.392971"
         style="font-style:normal;font-variant:normal;font-weight:normal;font-stretch:normal;font-size:9.87777805px;font-family:Dyuthi;-inkscape-font-specification:'Dyuthi, Normal';font-variant-ligatures:normal;font-variant-caps:normal;font-variant-numeric:normal;font-feature-settings:normal;text-align:start;writing-mode:lr-tb;text-anchor:start;fill:#4caf50;fill-opacity:1;stroke-width:0.26458332">ester</tspan></text>
    <path
       style="opacity:1;fill:#4caf50;fill-opacity:1;stroke:none;stroke-width:1.00157475;stroke-miterlimit:4;stroke-dasharray:none;stroke-opacity:1"
       d="M 17.857422,0 A 17.857143,16.785714 0 0 0 0,16.785156 17.857143,16.785714 0 0 0 17.857422,33.572266 17.857143,16.785714 0 0 0 35.714844,16.785156 17.857143,16.785714 0 0 0 17.857422,0 Z m -3.832031,6.7363281 h 5.615234 c 0.401476,0 0.743273,0.032552 1.025391,0.097656 1.584201,0.2387153 2.909288,0.9759114 3.972656,2.2128906 1.063368,1.2369793 1.59375,2.5878913 1.59375,4.0527343 0,1.464844 -0.41645,2.848308 -1.251953,4.150391 -0.30382,0.477431 -0.68967,0.916884 -1.15625,1.318359 l 2.96289,4.980469 c 0.347223,0.585938 0.417101,1.302083 0.210938,2.148438 -0.217014,0.846354 -0.563585,1.269531 -1.041016,1.269531 h -0.0332 c -0.553385,0.325521 -1.134548,0.402127 -1.742187,0.228515 -1.269532,-0.32552 -2.157986,-1.253255 -2.667969,-2.783203 l -1.53125,-4.541015 -3.580078,0.06445 v 5.013672 c 0,0.672743 -0.244141,1.230903 -0.732422,1.675781 -0.488281,0.444878 -1.036892,0.667969 -1.644531,0.667969 h -0.06445 c -0.651042,0 -1.209202,-0.232639 -1.675782,-0.699219 -0.46658,-0.46658 -0.701172,-1.015191 -0.701172,-1.644531 V 9.1445312 c 0,-0.6510416 0.239367,-1.2139756 0.716797,-1.6914062 0.477431,-0.4774306 1.051867,-0.7167969 1.72461,-0.7167969 z m 2.376953,2.1484375 v 8.5781254 h 2.34375 c 0.813802,-0.0217 1.508897,-0.326172 2.083984,-0.91211 0.575087,-0.596788 0.856554,-1.719835 0.845703,-3.36914 0,-1.638455 -0.292968,-2.766276 -0.878906,-3.384766 C 20.200087,9.1783854 19.516493,8.8739149 18.746094,8.8847656 Z"
       transform="matrix(0.26458333,0,0,0.26458333,39.224787,24.195685)"
       id="path825-0"
       inkscape:connector-curvature="0" />
  </g>
</svg>
